<mxfile host="app.diagrams.net" agent="Mozilla/5.0 (Windows NT 10.0; Win64; x64) AppleWebKit/537.36 (KHTML, like Gecko) Chrome/109.0.0.0 Safari/537.36" version="24.8.6">
  <diagram id="EIKAbJgHdDgJyAk7H4JV" name="Trang-1">
    <mxGraphModel dx="666" dy="534" grid="0" gridSize="10" guides="1" tooltips="1" connect="1" arrows="1" fold="1" page="0" pageScale="1" pageWidth="827" pageHeight="1169" math="0" shadow="0">
      <root>
        <mxCell id="0" />
        <mxCell id="1" parent="0" />
        <mxCell id="TXLRx18iU_LEVruFWjB1-1" style="edgeStyle=orthogonalEdgeStyle;rounded=0;orthogonalLoop=1;jettySize=auto;html=1;exitX=0.5;exitY=1;exitDx=0;exitDy=0;entryX=0.5;entryY=0;entryDx=0;entryDy=0;" edge="1" parent="1" source="TXLRx18iU_LEVruFWjB1-2" target="TXLRx18iU_LEVruFWjB1-4">
          <mxGeometry relative="1" as="geometry" />
        </mxCell>
        <mxCell id="TXLRx18iU_LEVruFWjB1-2" value="Start" style="ellipse;whiteSpace=wrap;html=1;" vertex="1" parent="1">
          <mxGeometry x="320" y="20" width="120" height="80" as="geometry" />
        </mxCell>
        <mxCell id="TXLRx18iU_LEVruFWjB1-3" style="edgeStyle=orthogonalEdgeStyle;rounded=0;orthogonalLoop=1;jettySize=auto;html=1;exitX=0.5;exitY=1;exitDx=0;exitDy=0;entryX=0.5;entryY=0;entryDx=0;entryDy=0;" edge="1" parent="1" source="TXLRx18iU_LEVruFWjB1-4" target="TXLRx18iU_LEVruFWjB1-6">
          <mxGeometry relative="1" as="geometry" />
        </mxCell>
        <mxCell id="TXLRx18iU_LEVruFWjB1-4" value="nhập vào số 1, số 2" style="rounded=0;whiteSpace=wrap;html=1;" vertex="1" parent="1">
          <mxGeometry x="320" y="140" width="120" height="60" as="geometry" />
        </mxCell>
        <mxCell id="TXLRx18iU_LEVruFWjB1-5" style="edgeStyle=orthogonalEdgeStyle;rounded=0;orthogonalLoop=1;jettySize=auto;html=1;exitX=0.5;exitY=1;exitDx=0;exitDy=0;entryX=0.5;entryY=0;entryDx=0;entryDy=0;" edge="1" parent="1" source="TXLRx18iU_LEVruFWjB1-6" target="TXLRx18iU_LEVruFWjB1-9">
          <mxGeometry relative="1" as="geometry" />
        </mxCell>
        <mxCell id="TXLRx18iU_LEVruFWjB1-6" value="nhập phép tính&lt;div&gt;(+, -, *, /)&lt;/div&gt;" style="shape=parallelogram;perimeter=parallelogramPerimeter;whiteSpace=wrap;html=1;fixedSize=1;" vertex="1" parent="1">
          <mxGeometry x="320" y="240" width="120" height="60" as="geometry" />
        </mxCell>
        <mxCell id="TXLRx18iU_LEVruFWjB1-7" style="edgeStyle=orthogonalEdgeStyle;rounded=0;orthogonalLoop=1;jettySize=auto;html=1;exitX=0;exitY=0.5;exitDx=0;exitDy=0;entryX=0.5;entryY=0;entryDx=0;entryDy=0;" edge="1" parent="1" source="TXLRx18iU_LEVruFWjB1-9" target="TXLRx18iU_LEVruFWjB1-10">
          <mxGeometry relative="1" as="geometry" />
        </mxCell>
        <mxCell id="TXLRx18iU_LEVruFWjB1-8" style="edgeStyle=orthogonalEdgeStyle;rounded=0;orthogonalLoop=1;jettySize=auto;html=1;exitX=0.75;exitY=1;exitDx=0;exitDy=0;entryX=0.25;entryY=0;entryDx=0;entryDy=0;" edge="1" parent="1" source="TXLRx18iU_LEVruFWjB1-9" target="TXLRx18iU_LEVruFWjB1-13">
          <mxGeometry relative="1" as="geometry" />
        </mxCell>
        <mxCell id="TXLRx18iU_LEVruFWjB1-9" value="kiểm tra phép tính" style="rounded=0;whiteSpace=wrap;html=1;" vertex="1" parent="1">
          <mxGeometry x="320" y="340" width="120" height="60" as="geometry" />
        </mxCell>
        <mxCell id="TXLRx18iU_LEVruFWjB1-10" value="phép cộng" style="shape=parallelogram;perimeter=parallelogramPerimeter;whiteSpace=wrap;html=1;fixedSize=1;" vertex="1" parent="1">
          <mxGeometry x="120" y="440" width="120" height="60" as="geometry" />
        </mxCell>
        <mxCell id="TXLRx18iU_LEVruFWjB1-11" value="phép trừ" style="shape=parallelogram;perimeter=parallelogramPerimeter;whiteSpace=wrap;html=1;fixedSize=1;" vertex="1" parent="1">
          <mxGeometry x="250" y="440" width="120" height="60" as="geometry" />
        </mxCell>
        <mxCell id="TXLRx18iU_LEVruFWjB1-12" style="edgeStyle=orthogonalEdgeStyle;rounded=0;orthogonalLoop=1;jettySize=auto;html=1;exitX=0.5;exitY=1;exitDx=0;exitDy=0;entryX=0.25;entryY=0;entryDx=0;entryDy=0;" edge="1" parent="1" source="TXLRx18iU_LEVruFWjB1-13" target="TXLRx18iU_LEVruFWjB1-23">
          <mxGeometry relative="1" as="geometry" />
        </mxCell>
        <mxCell id="TXLRx18iU_LEVruFWjB1-13" value="phép nhân" style="shape=parallelogram;perimeter=parallelogramPerimeter;whiteSpace=wrap;html=1;fixedSize=1;" vertex="1" parent="1">
          <mxGeometry x="380" y="440" width="120" height="60" as="geometry" />
        </mxCell>
        <mxCell id="TXLRx18iU_LEVruFWjB1-14" style="edgeStyle=orthogonalEdgeStyle;rounded=0;orthogonalLoop=1;jettySize=auto;html=1;exitX=0.5;exitY=1;exitDx=0;exitDy=0;entryX=0.25;entryY=0;entryDx=0;entryDy=0;" edge="1" parent="1" source="TXLRx18iU_LEVruFWjB1-15" target="TXLRx18iU_LEVruFWjB1-25">
          <mxGeometry relative="1" as="geometry" />
        </mxCell>
        <mxCell id="TXLRx18iU_LEVruFWjB1-15" value="phép chia" style="shape=parallelogram;perimeter=parallelogramPerimeter;whiteSpace=wrap;html=1;fixedSize=1;" vertex="1" parent="1">
          <mxGeometry x="560" y="440" width="120" height="60" as="geometry" />
        </mxCell>
        <mxCell id="TXLRx18iU_LEVruFWjB1-16" style="edgeStyle=orthogonalEdgeStyle;rounded=0;orthogonalLoop=1;jettySize=auto;html=1;exitX=1;exitY=0.5;exitDx=0;exitDy=0;entryX=0.558;entryY=0.05;entryDx=0;entryDy=0;entryPerimeter=0;" edge="1" parent="1" source="TXLRx18iU_LEVruFWjB1-9" target="TXLRx18iU_LEVruFWjB1-15">
          <mxGeometry relative="1" as="geometry" />
        </mxCell>
        <mxCell id="TXLRx18iU_LEVruFWjB1-17" style="edgeStyle=orthogonalEdgeStyle;rounded=0;orthogonalLoop=1;jettySize=auto;html=1;exitX=0.25;exitY=1;exitDx=0;exitDy=0;entryX=0.833;entryY=0;entryDx=0;entryDy=0;entryPerimeter=0;" edge="1" parent="1" source="TXLRx18iU_LEVruFWjB1-9" target="TXLRx18iU_LEVruFWjB1-11">
          <mxGeometry relative="1" as="geometry" />
        </mxCell>
        <mxCell id="TXLRx18iU_LEVruFWjB1-18" style="edgeStyle=orthogonalEdgeStyle;rounded=0;orthogonalLoop=1;jettySize=auto;html=1;exitX=0.5;exitY=1;exitDx=0;exitDy=0;" edge="1" parent="1" source="TXLRx18iU_LEVruFWjB1-19">
          <mxGeometry relative="1" as="geometry">
            <mxPoint x="380" y="680" as="targetPoint" />
          </mxGeometry>
        </mxCell>
        <mxCell id="TXLRx18iU_LEVruFWjB1-19" value="In phép cộng" style="rounded=0;whiteSpace=wrap;html=1;" vertex="1" parent="1">
          <mxGeometry x="110" y="560" width="120" height="60" as="geometry" />
        </mxCell>
        <mxCell id="TXLRx18iU_LEVruFWjB1-20" style="edgeStyle=orthogonalEdgeStyle;rounded=0;orthogonalLoop=1;jettySize=auto;html=1;exitX=0.5;exitY=1;exitDx=0;exitDy=0;entryX=0.5;entryY=0;entryDx=0;entryDy=0;" edge="1" parent="1" source="TXLRx18iU_LEVruFWjB1-21">
          <mxGeometry relative="1" as="geometry">
            <mxPoint x="380" y="680" as="targetPoint" />
          </mxGeometry>
        </mxCell>
        <mxCell id="TXLRx18iU_LEVruFWjB1-21" value="In phép trừ" style="rounded=0;whiteSpace=wrap;html=1;" vertex="1" parent="1">
          <mxGeometry x="260" y="560" width="120" height="60" as="geometry" />
        </mxCell>
        <mxCell id="TXLRx18iU_LEVruFWjB1-22" style="edgeStyle=orthogonalEdgeStyle;rounded=0;orthogonalLoop=1;jettySize=auto;html=1;exitX=0.5;exitY=1;exitDx=0;exitDy=0;" edge="1" parent="1" source="TXLRx18iU_LEVruFWjB1-23">
          <mxGeometry relative="1" as="geometry">
            <mxPoint x="380" y="680" as="targetPoint" />
          </mxGeometry>
        </mxCell>
        <mxCell id="TXLRx18iU_LEVruFWjB1-23" value="In phép nhân" style="rounded=0;whiteSpace=wrap;html=1;" vertex="1" parent="1">
          <mxGeometry x="410" y="560" width="120" height="60" as="geometry" />
        </mxCell>
        <mxCell id="TXLRx18iU_LEVruFWjB1-24" style="edgeStyle=orthogonalEdgeStyle;rounded=0;orthogonalLoop=1;jettySize=auto;html=1;exitX=0.5;exitY=1;exitDx=0;exitDy=0;" edge="1" parent="1" source="TXLRx18iU_LEVruFWjB1-25">
          <mxGeometry relative="1" as="geometry">
            <mxPoint x="380" y="680" as="targetPoint" />
          </mxGeometry>
        </mxCell>
        <mxCell id="TXLRx18iU_LEVruFWjB1-25" value="In phép chia" style="rounded=0;whiteSpace=wrap;html=1;" vertex="1" parent="1">
          <mxGeometry x="590" y="560" width="120" height="60" as="geometry" />
        </mxCell>
        <mxCell id="TXLRx18iU_LEVruFWjB1-26" style="edgeStyle=orthogonalEdgeStyle;rounded=0;orthogonalLoop=1;jettySize=auto;html=1;exitX=0.5;exitY=1;exitDx=0;exitDy=0;entryX=0.583;entryY=0;entryDx=0;entryDy=0;entryPerimeter=0;" edge="1" parent="1" source="TXLRx18iU_LEVruFWjB1-10" target="TXLRx18iU_LEVruFWjB1-19">
          <mxGeometry relative="1" as="geometry" />
        </mxCell>
        <mxCell id="TXLRx18iU_LEVruFWjB1-27" style="edgeStyle=orthogonalEdgeStyle;rounded=0;orthogonalLoop=1;jettySize=auto;html=1;exitX=0.5;exitY=1;exitDx=0;exitDy=0;entryX=0.417;entryY=-0.05;entryDx=0;entryDy=0;entryPerimeter=0;" edge="1" parent="1" source="TXLRx18iU_LEVruFWjB1-11" target="TXLRx18iU_LEVruFWjB1-21">
          <mxGeometry relative="1" as="geometry" />
        </mxCell>
        <mxCell id="TXLRx18iU_LEVruFWjB1-29" value="END" style="ellipse;whiteSpace=wrap;html=1;" vertex="1" parent="1">
          <mxGeometry x="320" y="678" width="120" height="80" as="geometry" />
        </mxCell>
      </root>
    </mxGraphModel>
  </diagram>
</mxfile>
